#!OML:ASF F:\VICON\USERDATA\INSTALL\rory3\rory3.ASF
:FULLY-SPECIFIED
:DEGREES
10
root -0.5724009999999999 16.8013 -26.682300000000023 3.78547 -4.71879000000001 -6.260399999999998
lfemur -19.17439999999999 6.549180000000003 -9.258630000000013
ltibia 104.03299999999999
lfoot 27.941600000000054 -19.30010000000002
ltoes 11.508100000000015
rfemur -29.293400000000013 7.211019999999995 35.66020000000001
rtibia 54.9323
rfoot -21.732900000000022 -14.755500000000021
rtoes 2.2273099999999992
lowerback 1.0 -0.4198069999999984 3.5928200000000023
upperback 0.22581600000000168 0.6313470000000001 3.921800000000001
thorax -10.303499999999998 0.2307419999999998 2.084999999999998
lowerneck -18.6705 -2.413450000000002 -2.19654
upperneck 12.949600000000002 -2.837380000000006 0.8694960000000038
head 7.06141 -1.3910500000000008 0.31689999999999946
lclavicle -4.472659999999992e-15 4.373260000000009e-15
lhumerus -47.0476 -7.9346300000000065 96.7914
lradius 95.07369999999999
lwrist 33.010600000000004
lhand -30.3222 1.500719999999998
lfingers 7.12502
lthumb -3.6286500000000017 31.4496
rclavicle -4.472659999999992e-15 4.373260000000009e-15
rhumerus -44.03770000000001 6.921120000000001 -93.3655
rradius 99.03479999999999
rwrist -9.745750000000001
rhand -21.246199999999995 1.0
rfingers 7.12502
rthumb 5.136679999999996 11.119999999999997
11
root -0.6128109999999998 16.8006 -25.71069999999997 4.00544 -2.9272799999999934 -6.118689999999997
lfemur -26.08300000000001 5.815950000000001 -9.000960000000019
ltibia 106.73400000000004
lfoot 23.595300000000034 -17.75639999999999
ltoes 4.053919999999978
rfemur -25.496 7.0403999999999884 35.853399999999986
rtibia 54.948600000000006
rfoot -25.80689999999998 -15.937699999999985
rtoes 5.749869999999991
lowerback 1.0 -0.5081869999999985 3.2390999999999996
upperback 0.07469830000000144 0.4441159999999995 4.140909999999994
thorax -10.218699999999998 0.16801499999999991 2.574489999999995
lowerneck -17.836800000000004 -2.6317299999999983 -2.37384
upperneck 12.511799999999997 -3.1200499999999978 0.9598300000000024
head 6.78839 -1.5308599999999983 0.35477800000000026
lclavicle 2.1965699999999954e-14 -2.5046899999999976e-14
lhumerus -49.4273 -8.060620000000007 97.7563
lradius 95.04719999999998
lwrist 31.383199999999995
lhand -31.0818 -0.31382099999999924
lfingers 7.12502
lthumb -4.362090000000002 29.6213
rclavicle 2.1965699999999954e-14 -2.5046899999999976e-14
rhumerus -41.67750000000001 8.165309999999996 -93.608
rradius 101.23999999999998
rwrist -10.425899999999995
rhand -21.048899999999996 1.0
rfingers 7.12502
rthumb 5.327149999999998 11.119200000000003
12
root -0.6381959999999999 16.8622 -24.705099999999955 4.386139999999999 -1.1258600000000019 -5.44753999999999
lfemur -32.3441 4.676149999999989 -10.141299999999983
ltibia 107.03600000000003
lfoot 17.411600000000025 -15.049000000000003
ltoes -3.1653799999999865
rfemur -20.878899999999998 5.983780000000001 35.59730000000001
rtibia 52.939799999999984
rfoot -27.969800000000042 -17.456999999999987
rtoes 12.270599999999975
lowerback 1.0 -0.48530799999999885 2.7062399999999998
upperback -0.33679200000000015 0.33772500000000005 4.034989999999996
thorax -10.296999999999999 0.14315000000000022 2.787629999999996
lowerneck -16.6678 -3.06586 -2.5339900000000006
upperneck 11.9146 -3.7533000000000003 1.333500000000002
head 6.421810000000001 -1.8169900000000017 0.45175299999999974
lclavicle 1.3119799999999978e-14 -4.452780000000005e-14
lhumerus -52.4624 -9.191949999999991 98.9785
lradius 96.50509999999998
lwrist 29.8852
lhand -32.386 0.6993309999999997
lfingers 7.12502
lthumb -5.621379999999999 30.6048
rclavicle 1.3119799999999978e-14 -4.452780000000005e-14
rhumerus -41.21440000000001 9.346730000000004 -94.4309
rradius 105.37699999999998
rwrist -14.601300000000002
rhand -21.310300000000005 1.0
rfingers 7.12502
rthumb 5.074780000000002 9.639149999999997
13
root -0.6565799999999999 16.9537 -23.676800000000082 4.644550000000001 0.5501919999999995 -4.903240000000006
lfemur -37.667299999999976 3.0037400000000005 -11.405099999999996
ltibia 105.11599999999996
lfoot 14.45690000000001 -13.145599999999995
ltoes 3.824259999999981
rfemur -15.682199999999996 5.285420000000007 35.5353
rtibia 49.619400000000006
rfoot -27.33510000000006 -18.87150000000001
rtoes -0.9820120000000019
lowerback 1.0 0.06289650000000002 2.955820000000002
upperback -0.20836500000000113 0.998578 3.374499999999999
thorax -9.69003 0.42711200000000005 1.738389999999999
lowerneck -18.093799999999998 -4.08007 -2.05948
upperneck 12.7665 -5.29698 1.7890699999999984
head 6.96452 -2.48185 0.32318900000000006
lclavicle 1.689669999999998e-15 2.703469999999998e-14
lhumerus -54.30799999999999 -12.4336 99.8391
lradius 98.17989999999999
lwrist 30.0093
lhand -31.8897 2.166290000000001
lfingers 7.12502
lthumb -5.14225 32.0839
rclavicle 1.689669999999998e-15 2.703469999999998e-14
rhumerus -39.58659999999998 8.43218 -94.88999999999999
rradius 108.928
rwrist -16.785099999999996
rhand -21.8309 1.0
rfingers 7.12502
rthumb 4.572059999999995 8.09123
